<svg id="Layer_1" data-name="Layer 1" xmlns="http://www.w3.org/2000/svg" viewBox="0 0 225.51 56.07"><defs><style>.cls-1{fill:#231f20;}</style></defs><title>mc logo</title><path class="cls-1" d="M435.75,427.61l-.4,2.56a10.83,10.83,0,0,1-2.72,5.37c-.73.76-1.37.92-1.95.48s-.4-1.07.27-2a9.72,9.72,0,0,0,1.6-3L432,431a1.55,1.55,0,0,1-1.44-2l.34-2.13a1.54,1.54,0,0,1,2-1.43l1.45.22A1.55,1.55,0,0,1,435.75,427.61Z" transform="translate(-224.49 -425.38)"/><path class="cls-1" d="M248.48,470.13a2.34,2.34,0,0,1-1.89,2.47,2.4,2.4,0,0,1-2.93-1.17l-9.59-14.83,5.8,21.51a2.06,2.06,0,0,1-1.61,2.81l-1.56.42a2.06,2.06,0,0,1-2.81-1.62l-9.28-34.36a2.06,2.06,0,0,1,1.61-2.82l2-.54a2.44,2.44,0,0,1,3,1.16L243.68,462l1.33-22.6a2.48,2.48,0,0,1,2-2.5l2.22-.6A2.06,2.06,0,0,1,252,438l9.28,34.36a2,2,0,0,1-1.62,2.81l-1.77.49a2.07,2.07,0,0,1-2.82-1.63l-5.8-21.5Z" transform="translate(-224.49 -425.38)"/><path class="cls-1" d="M279,460.8l.82,4.44c.83,4.58-1.82,6.81-6.31,7.63l-.09,0c-4.48.82-7.75-.29-8.59-4.91l-3.25-17.78c-.81-4.41,1.81-6.82,6.3-7.63l.09,0c4.49-.82,7.79.5,8.6,4.91l.68,3.72a1.56,1.56,0,0,1-1.39,2l-1.52.28a1.55,1.55,0,0,1-2-1.39l-.55-3c-.38-2.08-1.51-2.53-3.08-2.24s-2.46,1.11-2.08,3.18l3,16.26c.38,2.08,1.51,2.53,3.08,2.24s2.46-1.1,2.09-3.18l-.68-3.69a1.55,1.55,0,0,1,1.39-2l1.52-.28A1.54,1.54,0,0,1,279,460.8Z" transform="translate(-224.49 -425.38)"/><path class="cls-1" d="M304.06,454.13l.69,6c.71,6.16-3,8.9-9.06,9.6h-.12c-6,.7-10.29-1.06-11-7.28l-2.76-24c-.68-5.92,3-8.89,9.07-9.59H291c6-.7,10.33,1.35,11,7.28l.58,5a2.06,2.06,0,0,1-2,2.54l-2.05.24a2.07,2.07,0,0,1-2.55-2l-.46-4c-.32-2.79-1.79-3.49-3.9-3.25s-3.38,1.26-3.06,4.05l2.53,21.9c.32,2.8,1.79,3.49,3.9,3.25s3.38-1.25,3.06-4.05l-.58-5a2.05,2.05,0,0,1,2-2.54l2.06-.24A2.05,2.05,0,0,1,304.06,454.13Z" transform="translate(-224.49 -425.38)"/><path class="cls-1" d="M319.63,426.58l.46,0c6.08-.26,10.2,2,10.46,8.06l1.05,24.11c.26,6.08-3.65,8.66-9.74,8.93l-.46,0c-6.08.26-10.2-2-10.46-8.06l-1.05-24.11C309.63,429.37,313.54,426.84,319.63,426.58Zm1.75,35.23c2.18-.09,3.64-1,3.51-3.83l-.95-22c-.12-2.87-1.65-3.6-3.83-3.51s-3.64,1-3.52,3.83l1,22C317.67,461.17,319.2,461.91,321.38,461.81Z" transform="translate(-224.49 -425.38)"/><path class="cls-1" d="M371.83,430.07l-6.92,35.37a2.27,2.27,0,0,1-2.55,2l-2-.08a2.31,2.31,0,0,1-2.45-2.15l-3.79-25.67-5.73,25.3a2.33,2.33,0,0,1-2.61,2l-2.24-.09a2.26,2.26,0,0,1-2.38-2.22l-4.21-35.79c-.17-1.62.61-2.45,2.16-2.39l1.89.07a2.24,2.24,0,0,1,2.33,2.28l2.09,26.63,5.78-26.45a2.31,2.31,0,0,1,2.6-2l1.72.07a2.32,2.32,0,0,1,2.45,2.16L361.71,456l4.11-26.4a2.23,2.23,0,0,1,2.49-2.08l1.55,0C371.41,427.59,372.12,428.47,371.83,430.07Z" transform="translate(-224.49 -425.38)"/><path class="cls-1" d="M390,470.33l-13.11-1.58a2.06,2.06,0,0,1-2-2.55l4.26-35.36a2.05,2.05,0,0,1,2.55-2l13,1.56a2.07,2.07,0,0,1,2,2.56l-.16,1.25a2,2,0,0,1-2.55,2l-8.61-1L384,446.12l6.84.82a2.07,2.07,0,0,1,2,2.56l-.15,1.26a2.06,2.06,0,0,1-2.56,2l-6.84-.82-1.39,11.52,8.79,1.06a2.05,2.05,0,0,1,2,2.55l-.15,1.25A2.06,2.06,0,0,1,390,470.33Z" transform="translate(-224.49 -425.38)"/><path class="cls-1" d="M399.51,471.82l-1.47-.28a2.07,2.07,0,0,1-1.82-2.69l6.7-35a2.07,2.07,0,0,1,2.69-1.83l2.37.46a2.48,2.48,0,0,1,2.18,2.35l3.34,24,4.25-22.15a2.06,2.06,0,0,1,2.69-1.83l1.46.29a2.05,2.05,0,0,1,1.82,2.69L417,472.83a2.06,2.06,0,0,1-2.68,1.83l-2-.39a2.47,2.47,0,0,1-2.18-2.35l-3.45-25.32L402.2,470A2.06,2.06,0,0,1,399.51,471.82Z" transform="translate(-224.49 -425.38)"/><path class="cls-1" d="M445.62,456.2l-1.88-.54a2.06,2.06,0,0,1-1.59-2.83l.91-3.2c.68-2.43-.45-3.71-2.33-4.24s-3.51,0-4.2,2.4l-.74,2.65c-.56,2-.15,3.07,1.38,4.63l3.82,3.82c3.11,3.14,4.84,5.48,3.67,9.62l-1.57,5.59c-1.68,6-6,7-11.83,5.38l-.11,0c-5.86-1.64-9-4.73-7.29-10.76l1.27-4.53a2.07,2.07,0,0,1,2.84-1.59l1.87.53a2.06,2.06,0,0,1,1.59,2.83l-1,3.65c-.67,2.38.41,3.82,2.35,4.36s3.61-.11,4.28-2.49l.85-3.05c.57-2,.24-3.15-1.4-4.74l-3.76-3.81c-3.16-3.21-4.82-5.59-3.68-9.62l1.43-5.08c1.62-5.76,6.44-6.79,11.75-5.29l.11,0c5.31,1.49,8.89,4.89,7.27,10.63l-1.15,4.1A2.08,2.08,0,0,1,445.62,456.2Z" transform="translate(-224.49 -425.38)"/></svg>